<?xml version="1.0" standalone="no"?>
<!DOCTYPE svg PUBLIC "-//W3C//DTD SVG 1.1//EN" "http://www.w3.org/Graphics/SVG/1.1/DTD/svg11.dtd" >
<!--
2013-9-30: Created.
-->
<svg>
<metadata>
Created by iconfont
</metadata>
<defs>

<font id="iconfont" horiz-adv-x="1024" >
  <font-face
    font-family="iconfont"
    font-weight="500"
    font-stretch="normal"
    units-per-em="1024"
    ascent="896"
    descent="-128"
  />
    <missing-glyph />
    
    <glyph glyph-name="saomiaokehuduan1" unicode="&#59019;" d="M863.1 707.4v-183.3h57.5V740.8c0 52.7-48.2 48.2-48.2 48.2H655.7v-57.5H839s24.1-0.7 24.1-24.1z m-704 0c0 23.3 24.1 24.1 24.1 24.1h183.4V789H149.8s-48.2 4.5-48.2-48.2v-216.7h57.5V707.4z m704-655.6c0-23.3-24.1-24.1-24.1-24.1H655.6v-57.5h216.8s48.2-4.5 48.2 48.2V235.1H863l0.1-183.3z m-704 0V235.1h-57.5v-216.7c0-52.6 48.2-48.2 48.2-48.2h216.8v57.5H183.2s-24.1 0.8-24.1 24.1z m-57.5 369.6h819V348h-819v73.4z m0 0M101.6 421.7h820v-74h-820z"  horiz-adv-x="1024" />

    
    <glyph glyph-name="disanfangzhifu-" unicode="&#58900;" d="M484.09 301.21l-83.77 82.65-39.09-38.58 122.86-121.22L662.8 400.38l-39.1 38.58-139.61-137.75zM288.62 593.22c-16.75 0-27.92-11-27.92-27.54s11.17-27.54 27.92-27.54h30.55a34 34 0 0 0 8.85 7.52l96.41 47.56zM434.85 538.14h283.41l-57.99 112.21-225.42-112.21zM512 896C229.23 896 0 666.77 0 384s229.23-512 512-512 512 229.23 512 512S794.77 896 512 896z m307.14-716c0-30.31-25.12-55.11-55.84-55.11H260.7c-30.8 0.11-55.7 24.7-55.84 55.11V565.68c0 46.84 36.29 82.65 83.76 82.65h247.52l126.94 62.62c14 5.52 30.72 0 36.29-11l83.76-165.29s0-0.11 0.07-0.16c21-8 35.94-28.06 35.94-51.46z"  horiz-adv-x="1024" />

    
    <glyph glyph-name="suoyoushuju-" unicode="&#58899;" d="M848.14 845.26H175.86c-23.11 0-42-18.05-42-40.11v-842.3c0-22.06 18.91-40.11 42-40.11h672.28c23.11 0 42 18 42 40.11V805.15c0.02 22.06-18.89 40.11-42 40.11z m-113-519.79l1.9-1.82A58.7 58.7 0 0 0 737 238l-1.9-1.81-180.45-113.04a65.81 65.81 0 0 0-85.3 0L288.88 236.2 287 238a58.71 58.71 0 0 0 0 85.65l1.9 1.81 5.13 3.21-5.13 3.22-1.9 1.81a58.72 58.72 0 0 0 0 85.65l1.91 1.82 13.34 8.36-11.94 7-2 1.77c-25.41 22.93-26.55 61.33-2.53 85.6l1.85 1.87 177.06 117.91A65.81 65.81 0 0 0 550 646l183.72-108.13 2-1.77c25.42-22.94 26.55-61.34 2.52-85.6l-1.85-1.87-21.84-14.54 20.61-12.91 1.91-1.82a58.71 58.71 0 0 0 0-85.64l-1.9-1.82-5.17-3.22zM505.9 368.61l2-1.78a10.65 10.65 0 0 1 3.26-2l0.35-0.12c0.24-0.08 0.47-0.17 0.7-0.23a11.87 11.87 0 0 1 3.48-0.43 11.17 11.17 0 0 1 7.62 3.21l1.85 1.88 142.08 94.6 34 22.64a10.25 10.25 0 0 1-0.36 11.95L518.1 605.84l-2 1.76a11.38 11.38 0 0 1-15.41-0.41l-1.85-1.87L322.8 488.09a10.26 10.26 0 0 1 0.35-12zM682.13 298.7l-127.48-79.84a65.55 65.55 0 0 0-55.5-14.44 64.31 64.31 0 0 0-29.8 14.43l-13.11 8.22-114.36 71.63-19-11.9a10.18 10.18 0 0 1 0-11.93l179.49-112.43 1.9-1.82a11.46 11.46 0 0 1 15.45 0l1.9 1.82 179.5 112.44a10.18 10.18 0 0 1 0 11.93zM668.1 403.19l-108.79-72.43A63.25 63.25 0 0 0 543.13 320a65.21 65.21 0 0 0-17.13-5.26l-0.46-0.06a68.32 68.32 0 0 0-8.37-0.76h-3.75l-1.65 0.06-1.22 0.08c-0.57 0-1.14 0.08-1.7 0.14l-1.16 0.12-1.72 0.22-1.12 0.17-1.74 0.29-1.07 0.21-1.75 0.38-1 0.24-1.75 0.47-1 0.28c-0.58 0.17-1.15 0.35-1.73 0.54l-1 0.32-1.7 0.62-1 0.36c-0.57 0.22-1.12 0.46-1.68 0.7l-0.94 0.4c-0.55 0.24-1.09 0.5-1.64 0.76l-0.93 0.45c-0.54 0.27-1.07 0.55-1.6 0.84l-0.9 0.48-1.58 0.92-0.87 0.52c-0.53 0.32-1.05 0.67-1.57 1l-0.81 0.53a38.9 38.9 0 0 0-1.67 1.19l-0.64 0.46c-0.76 0.57-1.51 1.15-2.25 1.75l-122.45 72-28.7-18a10.19 10.19 0 0 1 0-11.95l179.49-112.33 1.9-1.82a11.46 11.46 0 0 1 15.45 0l1.9 1.82 179.5 112.43a10.19 10.19 0 0 1 0 11.95z"  horiz-adv-x="1024" />

    
    <glyph glyph-name="danjushuju-" unicode="&#58896;" d="M831.945081 793.431836H611.092991a105.981808 105.981808 0 0 1-211.853636 0H192.054919a39.993135 39.993135 0 0 1-39.993135-39.993135V-88.006865a39.993135 39.993135 0 0 1 39.993135-39.993135h639.890162a39.993135 39.993135 0 0 1 39.993135 39.993135V753.438701a39.993135 39.993135 0 0 1-39.993135 39.993135zM505.171172 839.833871A50.051409 50.051409 0 0 0 554.99262 793.431836h-99.682889A50.051409 50.051409 0 0 0 505.171172 839.833871zM533.996224 522.79829H270.911383a25.065697 25.065697 0 0 0-24.99571 24.99571 25.065697 25.065697 0 0 0 24.99571 24.995709H533.996224a25.065697 25.065697 0 0 0 24.99571-24.995709 25.065697 25.065697 0 0 0-24.99571-24.99571zM620.491377 378.912988H270.911383a25.065697 25.065697 0 0 0-24.99571 24.99571 25.065697 25.065697 0 0 0 24.99571 24.995709h349.579994a25.065697 25.065697 0 0 0 24.99571-24.995709 25.065697 25.065697 0 0 0-24.99571-24.99571z m82.355864-143.975286h-431.92586a25.065697 25.065697 0 0 0-24.995709 24.995709 25.065697 25.065697 0 0 0 24.995709 24.99571h431.92586a25.065697 25.065697 0 0 0 24.995709-24.99571 25.065697 25.065697 0 0 0-24.995709-24.995709z m50.80128-143.875304H270.911383a25.065697 25.065697 0 0 0-24.99571 24.995709 25.065697 25.065697 0 0 0 24.99571 24.99571h482.737138a25.065697 25.065697 0 0 0 24.995709-24.99571 25.065697 25.065697 0 0 0-24.995709-24.995709z"  horiz-adv-x="1024" />

    
    <glyph glyph-name="zichanfuzhaibiao" unicode="&#59017;" d="M948.4 419.1l-334.7-46.8 288.8-175.9c30.7 61.1 46.7 128.5 46.8 196.9 0 7.9-0.4 16.2-0.9 25.8z m-5.2 66.9C900.7 677.6 734.1 818.5 538.1 828.1l12.2-397.2L943.2 486z m-465.5 24.5l-9.6 316.3C245.8 804.5 74.4 616.4 74.4 391.1c0-241.5 196.4-437.9 437.5-437.9 141-0.1 273.4 68 355.2 182.8L483 370.1l-5.3 140.4z m0 0"  horiz-adv-x="1024" />

    
    <glyph glyph-name="shulianghesuanmingxizhang" unicode="&#59015;" d="M846.6 829.8H158.5c-30.5 0-55.4-25-55.4-55.4v-772.6c0-26.5 32-40 50.9-21.5l60.9 58.4c11.5 11 30 11.5 41.4 0.5l94.4-88.4c12-11 30-11 41.5 0.5l89.4 86.9c11.5 11.5 30 11.5 41.9 0l89.9-86.4c12-11.5 31-11 42.4 0.5l83.9 85.4c11.5 11.5 29.5 12 41.5 1.5l70.4-63.4c19.5-17.5 50.4-3.5 50.4 22.5V774.4c0.1 30.4-24.9 55.4-55.4 55.4zM589 247H261.9c-19.5 0-35 15.5-35 35s15.5 35 35 35H589c19.5 0 35-15.5 35-35-0.1-19.5-15.6-35-35-35z m133.3 171.3H261.9c-19.5 0-35 15.5-35 35s15.5 35 35 35h460.9c19.5 0 35-15.5 35-35s-16-35-35.5-35z m0 171.8H261.9c-19.5 0-35 15.5-35 35s15.5 35 35 35h460.9c19.5 0 35-15.5 35-35s-16-35-35.5-35z m0 0"  horiz-adv-x="1024" />

    
    <glyph glyph-name="lirunbiao" unicode="&#59016;" d="M211.4 191.3V291.4c0 9.5-3.8 18.7-10.5 25.5-6.8 6.8-15.9 10.5-25.5 10.5h-0.6c-9.5 0-18.7-3.8-25.5-10.5-6.8-6.8-10.5-15.9-10.5-25.5v-136.8c0-19.9 16.1-36 36-36h0.6c1.2 0 2.3 0 3.4 0.2 1.2-0.1 2.5-0.2 3.8-0.2h262.5c-8 23.5-12.9 47.9-14.6 72.7H211.4z m-41.6 531.3h540.6c9.5 0 18.7 3.8 25.5 10.5 6.8 6.8 10.5 15.9 10.5 25.5v0.6c0 19.9-16.1 36-36 36H169.8c-19.9 0-36-16.1-36-36v-0.6c0-19.9 16.1-36 36-36z m342.9-312.5c25.7 25.8 56.2 46.4 89.8 60.6 34.8 14.8 72.2 22.3 110 22.3 33.3 0 65.7-5.7 96.7-17l-65.7 203.9H136.9L71 475.3c0-51.6 41.4-93.3 92.5-93.3 48 0 87.5 36.9 92.1 84.1 4.6-47.2 44.1-84.1 92.1-84.1 48 0 87.5 36.9 92.1 84.1 3.3-33.3 24-62.3 54.5-76 5.8 6.9 11.9 13.6 18.4 20z m199.7 46.8c-136.2 0-246.5-110.5-246.5-246.7 0-136.3 110.3-246.7 246.5-246.7 136.1 0 246.5 110.5 246.5 246.7 0 136.3-110.4 246.7-246.5 246.7z m108.7-271.4v-35.7h-92.9v-86.1h-36.1v86.1h-92.9v35.7h92.9v15.7L586.4 356.8h41s82.6-124.6 83.5-126.2l81.9 126.2h45.4l-110-157.2v-14.2h92.9z m0 0"  horiz-adv-x="1024" />

    
    <glyph glyph-name="gongjijin" unicode="&#59014;" d="M508.2 797.77L51.33 423.8h133.81v-456.1h646.14V423.8h133.81L508.2 797.77z m121.95-456.92h-101.2v-82.92h101.2v-41.46h-101.2v-124.38h-41.46V216.47H386.27v41.46h101.22v82.92H386.27v41.46h71.91l-65.15 65.15 29.31 29.31 85.88-85.88 85.86 85.88 29.31-29.31-65.14-65.15h71.9v-41.46z"  horiz-adv-x="1024" />

    
    <glyph glyph-name="zhuanxiang" unicode="&#59013;" d="M517.68 234.04L79.09 437.51l438.59 203.48 438.59-203.48zM517.68 94.88L70.84 302.18l16.5 35.55 430.34-199.65 430.35 199.65 16.49-35.55zM517.68-22.68L70.84 184.62l16.5 35.55 430.34-199.65 430.35 199.65 16.49-35.55z"  horiz-adv-x="1024" />

    
    <glyph glyph-name="daitanfeiyong1" unicode="&#59012;" d="M464.3 771.6l-323.1-320c-51-50.5-79.8-119.1-80.1-190.9-0.3-71.7 27.8-140.7 78.3-191.6l1.8-1.8C248.7-39.2 421.1-41.9 532 61l354.6 329.3c84.5 78.4 89.4 210.5 11 295-3 3.2-3 3.2-6.1 6.3-84.7 84-221.3 84-306 0l-343.2-340c-50.9-50.4-51.3-132.5-0.9-183.4l0.9-0.9c51.2-50.7 133.6-50.7 184.8 0l343.3 340c17.8 17.6 17.9 46.2 0.3 64-17.6 17.8-46.2 17.9-64 0.3l-343.2-340c-15.9-15.8-41.6-15.8-57.5 0l-0.3 0.3a39.61 39.61 0 0 0-11.4 27.8c0 10.4 4.2 20.4 11.6 27.7l343.3 340c49.4 49 129.2 49 178.6 0l3.5-3.6c44.5-47.9 41.7-122.8-6.2-167.2L470.5 127.3c-75.4-70-192.5-68.1-265.6 4.3l-1.2 1.2c-33.6 33.9-52.4 79.8-52.1 127.5 0.2 47.7 19.4 93.5 53.4 127l323.1 320c17.7 17.6 17.9 46.2 0.3 64-17.7 17.8-46.3 17.9-64.1 0.3z m0 0"  horiz-adv-x="1024" />

    
    <glyph glyph-name="wanglaitongjibiao" unicode="&#59011;" d="M413.6 139.6v-189.7L97.4 209.2l316.2 259.3v-189.7h505.9v-139.1H413.6z m189.7 493.3V822.6l316.2-259.3-316.2-259.2V493.8H97.4V632.9h505.9z m0 0"  horiz-adv-x="1024" />

    
    <glyph glyph-name="feiyongtongjibiao" unicode="&#59010;" d="M310.9 728.2c14.9-10.6 31.1-24.5 43.7-42.7 12.6-18.2 35.8-41.8 35.8-41.8h188.8s20 20.5 32.1 36.7c11.9 16.2 22.2 31.6 44.9 46.1 19 11.9 28.8 41.8 4.4 51.3-21.2 8.3-29.7-8.8-54.1-9.2-24.1-0.4-27.5 19.8-51.3 28.7-23.8 9-36.6 1.1-50.9-12.5-14.1-13.7-19.6-14.3-19.6-14.3s-16.9 9.8-26.1 20.2c-9.2 10.4-33.2 14.2-49 4.3-20.1-12.7-24.5-22.5-41.1-26-19-3.9-48.9 19.1-65.5 5.6-16.7-13.5-7-35.6 7.9-46.4z m385.8-249.1C626.4 538 588.6 594 588.6 594H382.8s-39.5-58.5-102.4-113.2c-72.4-62.8-131-163.2-109-283.6C191 90.2 293-31.3 486.5-31.3c187.3 0 297.2 100.6 318.2 223.4 25.6 150-48.3 236.9-108 287zM586.4 162h-74.9s0.3-17 0.3-26c0-10.8-10.2-22.9-24.6-22.6-14.5 0.1-25.2 7-26.4 23.4-0.4 7.4-0.3 25.2-0.3 25.2h-75.8c-12.2 0-20.8 13.9-20.4 24.1 0.4 10.3 9.5 21.2 20.4 21.2h75.8l0.1 51.8s-61.5-0.4-72.8-0.4c-11.7 0-19.7 8-20.2 18.2-0.3 10.3 9.2 29.5 20.2 29.5H461l0.1 18.6s-58.4 61.7-65.2 68.4c-6.7 6.7-15.1 22-4.3 34.3 10.3 11.8 29.6 3.2 38.7-5.5 10-9.6 56.8-57.9 56.8-57.9s54.5 50.5 65.8 59.9c11.1 9.2 26.4 9.9 35-0.5 8.6-10.2 5.1-20.1-8.7-32.7-13.8-12.7-67.1-67.1-67.1-67.1V307h70.3c15.9-0.4 24.9-18.3 24.6-27.9-0.4-11-6.6-20.1-24.2-20l-70.3-0.1-0.4-51.3h69c17.9 0 25.4-9.4 25.8-21.7 0.3-12-8.5-24.2-20.5-24z m0 0"  horiz-adv-x="1024" />

    
    <glyph glyph-name="shouzhitongjibiao" unicode="&#59009;" d="M907 310.1c-13.7 69.6-141.6 105.8-268.3 105.8h-5.4V683c0 77.9-135.4 118.7-269.5 118.7S94.3 760.9 94.3 683v-421.2c0-77.5 135.4-118.3 269.5-118.3h5.4v-56.7c0-77.9 135.4-118.7 269.5-118.7s269.5 40.8 269.5 118.7V310.1H907zM638.8 14.8c-136.2 0-223.3 42.9-223.3 72.5 0 7.9 6.7 17.1 18.3 25.8 52.1-25.8 128.7-39.2 205-39.2 76.2 0 152.9 13.3 205 39.2 12.1-8.7 18.3-17.9 18.3-25.8-0.1-29.6-87.1-72.5-223.3-72.5zM140.1 262.2c0 7.9 6.7 17.1 18.3 25.8 52.1-25.8 128.7-38.7 205-38.7h5.4v-59.2h-5.4c-136.2-0.4-223.3 42.6-223.3 72.1z m678.6-109.9c-9.6-4.6-20.4-8.7-32.9-12.5-37.5-11.7-87.5-19.6-147.1-19.6-59.6 0-109.6 8.3-147 19.6-11.2 3.3-21.2 7.1-30 11.2l-2.5 1.3c-10 4.6-18.3 9.6-25 14.6-1.7 1.2-2.9 2.1-4.6 3.3-8.7 7.5-13.7 15-13.7 21.7v0.4c0 7.9 6.7 16.7 18.3 25.8 13.3-6.7 27.9-12.1 44.2-17.1 10.4-3.3 21.2-5.8 32.5-8.3 4.6-0.8 9.2-2.1 13.7-2.9 14.6-2.9 30-5 45.4-6.7 7.1-0.8 14.6-1.7 22.1-2.1 15.8-1.2 31.7-1.7 47.5-1.7s31.7 0.4 47.5 1.7c28.3 2.1 55.8 5.8 81.2 11.7 28.7 6.2 54.6 15 76.6 25.8 12.1-8.7 18.3-17.5 18.3-25.8s-6.7-17.1-18.3-25.8c-7.9-5.1-16.2-10.1-26.2-14.6zM183.9 327.2c-10 4.6-18.3 9.6-25 14.6-12.1 8.7-18.3 17.9-18.3 25.8 0 7.9 6.7 17.1 18.3 25.8 21.7-10.8 47.9-19.2 76.6-25.8 25.4-5.8 52.9-9.6 81.2-11.7 15.8-1.2 31.2-1.7 47.1-1.7 11.7 0 23.7 0.4 35.4 0.8-7.5-6.2-13.7-13.3-18.7-20.8-7.1-11.2-11.2-23.3-11.2-36.7v-2.5h-5.4c-59.6 0-109.6 8.3-147 20-12.6 3.5-23.5 7.6-33 12.2z m-43.8 145.4c0 7.9 6.7 16.7 18.3 25.8 21.7-10.8 47.9-19.2 76.6-25.8 25.4-5.8 52.9-9.6 81.2-11.7 15.8-1.2 31.7-1.7 47.5-1.7s31.7 0.4 47.5 1.7c28.3 2.1 55.8 5.8 81.2 11.7 28.7 6.2 54.6 15 76.6 25.8 12.1-8.7 18.3-17.9 18.3-25.8s-6.7-17.1-18.3-25.8c-6.7-5-15-10-25-14.6-9.6-4.6-20.4-8.7-32.9-12.5-37.5-11.7-87.5-20-147-20s-109.6 8.3-147 20c-12.5 3.7-23.3 7.9-32.9 12.5-10 4.6-18.3 9.6-25 14.6-12.4 8.7-19.1 17.9-19.1 25.8z m0 105.4c0 7.9 6.7 16.7 18.3 25.8 21.7-10.8 47.9-19.2 76.6-25.8 25.4-5.8 53.3-9.6 81.2-11.7 15.4-1.2 31.2-1.7 47.1-1.7 15.8 0 31.7 0.4 47.1 1.7 28.3 2.1 55.8 5.8 81.2 11.7 28.7 6.2 55 15 76.6 25.8 12.1-8.7 18.3-17.9 18.3-25.8 0-7.9-6.7-17.1-18.3-25.8-6.7-5-15-10-25-14.6-9.6-4.6-20.4-8.7-32.9-12.5-37.5-11.7-87.5-20-147-20s-109.6 8.3-147 20c-12.5 3.8-23.3 7.9-32.9 12.5-10 4.6-18.3 9.6-25 14.6-11.6 8.7-18.3 17.9-18.3 25.8z m0 0"  horiz-adv-x="1024" />

    
    <glyph glyph-name="gongshangnianbaobiao" unicode="&#59008;" d="M179.3 47.7c-2.4 0-4.3 2-4.4 4.4v78.5c0.1 50.7 41.2 91.8 91.9 91.9h116.5c18.9 0 36.6 9.4 47.2 25.1 10.6 15.7 0.2 0.2 0.2 0.3 4.1 6.2 7.8 12.5 11.2 19.1 6.3 12.1 11.5 24.8 15.7 37.9 15.1 49 15.2 101.5 0.3 150.6-2 6.4-4.3 12.8-6.9 19-2.7 6.6-5.7 12.9-8.9 19-3.5 6.6-7.2 12.9-11.3 19.1l-0.1 0.1c-4.5 6.8-9.6 13.3-15.1 19.3-0.8 0.9-1.6 1.7-2.6 2.4-53.9 40.4-76.1 110.7-55.2 174.8C378.7 773.1 438 816.8 505.4 817.7h2c86.2 0 156.8-70.1 157.5-156.2 0.3-25.1-5.5-49.8-16.9-72.2-11-21.6-26.7-40.4-46.1-55-1-0.7-1.8-1.5-2.6-2.4-5.5-6-10.6-12.5-15.1-19.3l-0.1-0.1c-4.1-6.2-7.9-12.5-11.3-19.1-3.2-6-6.2-12.4-8.9-19-2.6-6.2-4.9-12.6-6.9-18.9-14.9-49.1-14.8-101.5 0.3-150.6 4.1-13.1 9.3-25.8 15.6-37.9 3.4-6.6 7.2-12.9 11.3-19.1 0-0.1 0.2-0.3 0.2-0.3 10.6-15.7 28.3-25.1 47.2-25.1h116.5c50.7-0.1 91.8-41.2 91.9-91.9v-78.5c0-2.4-2-4.3-4.4-4.4H179.3z m0 0M507.5 800.1c48.6 0 93.8-25.2 119.2-66.6 25.5-41.4 27.7-93 5.8-136.5-9.8-19.2-23.8-35.9-41-48.9-1.8-1.4-3.5-2.9-5.1-4.7-6.1-6.6-11.6-13.8-16.6-21.3l-0.1-0.2c-4.4-6.6-8.5-13.5-12.2-20.6-6.9-13.1-12.5-26.8-16.9-40.9-8.1-26.1-12.1-53.3-11.9-80.6 0-27.3 4.1-54.4 12.2-80.4 4.4-14 10-27.6 16.8-40.7v-0.1c3.7-7.1 7.8-14 12.2-20.6l0.1-0.2 0.1-0.1 0.1-0.1c13.8-20.5 37-32.9 61.7-32.8h116.4c41-0.2 74.2-33.4 74.4-74.4V65H192.4v65.4c0.2 41 33.4 74.2 74.4 74.4h116.5c24.8 0 47.9 12.3 61.8 32.8l0.1 0.1 0.1 0.2c4.4 6.7 8.5 13.5 12.2 20.6v0.1c6.8 13.1 12.4 26.7 16.8 40.7 8.1 26 12.2 53.1 12.2 80.4 0.1 27.3-3.9 54.5-11.9 80.6-2.2 6.9-4.6 13.7-7.4 20.4-2.9 7.1-6.1 13.9-9.5 20.5-3.7 7.1-7.8 14-12.3 20.7l-0.1 0.2c-5 7.5-10.5 14.6-16.6 21.2-1.5 1.7-3.2 3.3-5.1 4.7-17.1 12.9-31 29.5-40.7 48.5-21.9 43.1-20 94.5 5 135.9 25 41.4 69.6 67 117.9 67.6h1.7m0 35.2h-2.3c-74.9-1-140.8-49.5-164-120.7-23.2-71.2 1.5-149.2 61.3-194.2 5-5.5 9.6-11.3 13.7-17.5 3.8-5.6 7.3-11.5 10.4-17.5 3.1-5.8 5.8-11.7 8.2-17.5 2.4-5.8 4.5-11.7 6.3-17.5 7-22.7 10.5-46.3 10.3-70 0-23.7-3.6-47.3-10.6-70-3.8-12.1-8.6-23.8-14.5-35-3.1-6-6.6-11.9-10.3-17.5l-0.1-0.2c-7.3-10.9-19.6-17.4-32.7-17.3H266.8c-60.2 0-109.4-49.2-109.4-109.4v-78.5c0-12.1 9.8-21.8 21.9-21.9h656.5c12.1 0 21.8 9.8 21.9 21.9v78.3c0 60.2-49.2 109.4-109.4 109.4H631.8c-13.1 0-25.4 6.5-32.7 17.3l-0.1 0.2c-3.7 5.7-7.2 11.5-10.3 17.5-5.8 11.2-10.7 23-14.4 35.1-7 22.7-10.6 46.3-10.6 70-0.2 23.7 3.3 47.3 10.3 70 1.8 5.8 3.9 11.7 6.3 17.5 2.4 5.8 5.1 11.7 8.2 17.5 3.2 6 6.6 11.9 10.4 17.5 4.1 6.2 8.7 12.1 13.7 17.5 44.5 33.3 70.5 85.9 69.9 141.5-0.7 95.7-79.4 173.5-175 173.5z m332.7-892.4H174.9c-9.7 0-17.5 7.8-17.5 17.5s7.8 17.5 17.5 17.5h665.3c9.7 0 17.5-7.8 17.5-17.5s-7.9-17.5-17.5-17.5z m0 0"  horiz-adv-x="1024" />

    
    <glyph glyph-name="zengzhishui" unicode="&#59006;" d="M97.5 478.9h179.3V-59H97.5zM421 658.2h179.3v-717.3H421zM744.4 830.1h179.3v-896.6H744.4z"  horiz-adv-x="1024" />

    
    <glyph glyph-name="duolanzhang" unicode="&#59007;" d="M442.4 833.6H194.8c-21.1 0-38.2-17.1-38.2-38.2v-814.5c0-21.1 17.1-38.2 38.2-38.2h247.6c21.1 0 38.2 17.1 38.2 38.2V795.4c-0.1 21.1-17.2 38.2-38.2 38.2z m-53-678.3H247.7c-16.7 0-30.4 13.7-30.4 30.4s13.7 30.4 30.4 30.4h141.7c16.7 0 30.4-13.7 30.4-30.4s-13.7-30.4-30.4-30.4z m0 202.5H247.7c-16.7 0-30.4 13.7-30.4 30.4s13.7 30.4 30.4 30.4h141.7c16.7 0 30.4-13.7 30.4-30.4s-13.7-30.4-30.4-30.4z m0 202.5H247.7c-16.7 0-30.4 13.7-30.4 30.4s13.7 30.4 30.4 30.4h141.7c16.7 0 30.4-13.7 30.4-30.4s-13.7-30.4-30.4-30.4zM806.8 833.6H559.2c-21.1 0-38.2-17.1-38.2-38.2v-814.5c0-21.1 17.1-38.2 38.2-38.2h247.6c21.1 0 38.2 17.1 38.2 38.2V795.4c0 21.1-17.1 38.2-38.2 38.2z m-52.9-678.3H612.1c-16.7 0-30.4 13.7-30.4 30.4s13.7 30.4 30.4 30.4h141.7c16.7 0 30.4-13.7 30.4-30.4s-13.6-30.4-30.3-30.4z m0 202.5H612.1c-16.7 0-30.4 13.7-30.4 30.4s13.7 30.4 30.4 30.4h141.7c16.7 0 30.4-13.7 30.4-30.4s-13.6-30.4-30.3-30.4z m0 202.5H612.1c-16.7 0-30.4 13.7-30.4 30.4s13.7 30.4 30.4 30.4h141.7c16.7 0 30.4-13.7 30.4-30.4s-13.6-30.4-30.3-30.4z"  horiz-adv-x="1024" />

    
    <glyph glyph-name="jiezhang" unicode="&#59003;" d="M509.7 835.1c-248.3 0-449.6-201.3-449.6-449.6s201.3-449.6 449.6-449.6 449.6 201.3 449.6 449.6S758 835.1 509.7 835.1z m154.9-444.5v-39.9H546.9V305h117.7v-39.9H546.9v-113.7h-75.2V265.1h-117V305h117v45.7h-117v39.9h99.4L337.8 619.4h78.4l51-117c13.7-32 26.8-64.7 41.2-98h3.3c15 34 28.1 66 42.5 98l51.6 117h75.8l-117-228.8h100z"  horiz-adv-x="1024" />

    
    <glyph glyph-name="zongzhang" unicode="&#59004;" d="M157 759.8v-751.1c0-39.6 32.4-72 72-72h39.9v895H229c-39.6 0.1-72-32.3-72-71.9zM817.4 831.8H329.9v-895h487.4c39.6 0 72 32.4 72 72v751c0 39.6-32.4 72-71.9 72zM722 388.2v-29.8h-87.8v-34.2H722v-29.8h-87.8v-84.9H578v84.9h-87.3v29.8H578v34.2h-87.3v29.8h74.2L478 558.9h58.6l38.1-87.3c10.3-23.9 20-48.3 30.7-73.2h2.4c11.2 25.3 21 49.3 31.7 73.2l38.5 87.3h56.6l-87.3-170.8H722z"  horiz-adv-x="1024" />

    
    <glyph glyph-name="mingxizhang" unicode="&#59005;" d="M826.8-61.4h-644c-44.3 0-80.5 36.2-80.5 80.5V421.7h805.1v-402.6c0-44.3-36.3-80.5-80.6-80.5zM824.4 824.2H185.2c-23.5 0-42.7-19.2-42.7-42.7v-639.2c0-23.5 19.2-42.7 42.7-42.7H223V706.1c0 20.7 16.9 37.7 37.7 37.7H749c20.7 0 37.7-16.9 37.7-37.7v-606.4h37.8c23.5 0 42.7 19.2 42.7 42.7V781.5c-0.1 23.5-19.3 42.7-42.8 42.7zM680.6 633H329c-14 0-25.5 11.5-25.5 25.5v9.4c0 14 11.5 25.5 25.5 25.5h351.5c14 0 25.5-11.5 25.5-25.5v-9.4c0.1-14-11.4-25.5-25.4-25.5zM680.6 472H329c-14 0-25.5 11.5-25.5 25.5v9.4c0 14 11.5 25.5 25.5 25.5h351.5c14 0 25.5-11.5 25.5-25.5v-9.4c0.1-14-11.4-25.5-25.4-25.5z"  horiz-adv-x="1024" />

    
    <glyph glyph-name="pingzhengpiaojuguanlianbiao" unicode="&#59002;" d="M512.7 836.9C267.5 836.9 68.8 638.2 68.8 393s198.7-443.9 443.9-443.9S956.6 147.8 956.6 393 757.5 836.9 512.7 836.9z m-24.6-646.3l-26.5-26.1c-24.2-23.3-56.3-35.4-87.9-35.4-31.6 0-63.7 11.6-87.9 35.4-23.7 22.8-36.8 53-36.8 85.6 0 32.1 13 62.8 36.3 85.6l98.2 94.9c61 59.1 131.2 67.5 178.7 21.9 12.6-12.6 13-32.6 0-45.1-12.6-12.6-33.5-12.6-46.1 0-27.9 27-66.1-1.9-86.5-21.9l-97.7-94.9c-11.2-10.7-17.2-25.1-17.2-40 0-15.4 6-29.3 17.2-40 23.3-22.3 60.5-22.3 83.8 0l26.5 26.1c13 12.6 33.5 12.1 46.1 0 12.8-13.5 12.8-33.6-0.2-46.1z m251.7 243.3L635.1 332.5c-32.6-31.2-66.5-47-98.6-47-26.5 0-51.6 10.7-73.5 31.6-13 12.6-13 32.6 0 45.1 12.6 12.6 33.5 12.6 46.1 0 9.8-9.3 32.1-31.2 80 15.4L693.8 479c11.2 10.7 17.2 25.1 17.2 40 0 15.4-6 29.3-17.2 40-20.9 20-53 29.8-77.2 6.5l-33-32.1c-13-12.6-33.5-12.1-46.1 0-12.6 12.6-12.6 32.6 0 45.1l33 32.1c47 45.6 118.2 42.8 169.4-6.5 23.7-22.8 36.8-53 36.8-85.6-0.6-31.5-13.6-61.8-36.9-84.6z m0 0"  horiz-adv-x="1024" />

    
    <glyph glyph-name="quanyibiandongbiao" unicode="&#58974;" d="M508.5 821.36c-240.51 0-435.47-194.96-435.47-435.47 0-240.5 194.96-435.47 435.47-435.47s435.47 194.97 435.47 435.47C943.96 626.4 749 821.36 508.5 821.36z m126.72-630.49L508.5 257.5l-126.73-66.63 24.2 141.12-102.53 99.94 141.7 20.59 63.36 128.39 63.36-128.39 141.7-20.59-102.53-99.94 24.19-141.12z"  horiz-adv-x="1024" />

    
    <glyph glyph-name="pingzhengliebiao" unicode="&#58975;" d="M330 831.78L158.14 659.92v-719.31h729.14V831.78H330z m30.68-40.51v-162.03H198.65l162.03 162.03z m405.07-688.63H279.66v40.51h486.09v-40.51z m0 263.3H279.66v40.51h486.09v-40.51z m0 263.3H441.69v40.51h324.06v-40.51z"  horiz-adv-x="1024" />

    
    <glyph glyph-name="gudingzichan" unicode="&#58977;" d="M626.25 524.22v-586.9h270.88V388.78L626.25 524.22z m180.58-496.6h-90.29v90.29h90.29v-90.29z m0 180.59h-90.29V298.5h90.29v-90.29zM129.64 614.52v-677.19H581.1V840.25L129.64 614.52z m180.59-586.9h-90.29v90.29h90.29v-90.29z m0 180.59h-90.29V298.5h90.29v-90.29z m0 180.58h-90.29v90.29h90.29v-90.29z m180.58-361.17h-90.29v90.29h90.29v-90.29z m0 180.59h-90.29V298.5h90.29v-90.29z m0 180.58h-90.29v90.29h90.29v-90.29z"  horiz-adv-x="1024" />

    
    <glyph glyph-name="qingchujilubiao" unicode="&#58978;" d="M101.51 628.72h843.36v-175.24H101.51zM101.51 409.67h843.36v-219.05H101.51zM610.81 803.96v-350.49H435.57V803.96zM276.752 322.046v-350.49h-175.24v350.49zM499.457 322.04v-350.49h-175.24V322.04zM722.161 322.045v-350.49h-175.24v350.49zM944.866 322.05v-350.49h-175.24V322.05z"  horiz-adv-x="1024" />

    
    <glyph glyph-name="kemuqichu" unicode="&#58979;" d="M124.13 712.41h309.43v-309.43H124.13zM124.13 285.6h309.43v-309.43H124.13zM572.27 285.6H881.7v-309.43H572.27zM508.177 557.69l218.798 218.798L945.773 557.69 726.975 338.892z"  horiz-adv-x="1024" />

    
    <glyph glyph-name="wuxingzichan" unicode="&#58980;" d="M961.24 581.84H63.8c0 67.59 54.79 122.38 122.38 122.38h652.69c67.58 0 122.37-54.79 122.37-122.38zM63.8 541.04v-448.72c0-67.59 54.79-122.38 122.38-122.38h652.69c67.59 0 122.38 54.79 122.38 122.38V541.04H63.8z m183.57-489.51h-81.59V214.7h81.59v-163.17z m122.38 0h-81.59V214.7h81.59v-163.17z m122.37 0h-81.59V214.7h81.59v-163.17z"  horiz-adv-x="1024" />

    
    <glyph glyph-name="fuzhuhesuan" unicode="&#58982;" d="M97.42 796.71h216.3v-216.3H97.42zM97.42 484.27h216.3v-216.3H97.42zM97.42 171.83h216.3v-216.3H97.42zM421.87 760.66h504.71v-96.13H421.87zM421.87 424.19h504.71v-96.13H421.87zM421.87 87.72h504.71v-96.13H421.87z"  horiz-adv-x="1024" />

    
    <glyph glyph-name="kemuyuebiao" unicode="&#58984;" d="M141.31 825.1v-891h760v891h-760z m131.5-339.27h84.98v84.98h-84.98V613.3h54.93l-27.47 27.47 30.04 30.04 48.71-48.71 48.71 48.71 30.04-30.04-27.47-27.47h54.93v-42.49h-84.98v-84.98h84.98v-42.49h-84.98v-84.98h-42.49v84.98h-84.98v42.49z m503.44-382.41H266.38v42.49h509.88v-42.49z m0 127.47H266.38v42.49h509.88v-42.49z m0 212.45H563.8v42.49h212.45v-42.49z m0 127.47H563.8V613.3h212.45v-42.49z"  horiz-adv-x="1024" />

    
    <glyph glyph-name="xianjinliuliangbiao" unicode="&#58985;" d="M91.27 795.66v-830.07h830.07V795.66H91.27zM807.2 49.19H205.4v46.93h601.8v-46.93zM558.18 330.52L412.92 475.79 220.08 282.94l-29.35 29.35 222.19 222.19 145.26-145.26 234.35 234.35 29.35-29.35-263.7-263.7z"  horiz-adv-x="1024" />

    
    <glyph glyph-name="pinleiguanli" unicode="&#58986;" d="M518.77 800.19L87.69 369.1h126.26v-391.22H823.6V369.1h126.26L518.77 800.19z m-39.11-744.07H323.18V212.6h156.47v-156.48z m0 234.71H323.18V447.31h156.47v-156.48z m234.71-234.71H557.89V212.6h156.47v-156.48z m0 234.71H557.89V447.31h156.47v-156.48z"  horiz-adv-x="1024" />

    
    <glyph glyph-name="zhejiumingxizhang" unicode="&#58987;" d="M157.4 833.97v-898.19h734.89V833.97H157.4z m684.7-824.31H229.69v46.17H842.1v-46.17z m0 142.89H229.69v46.17H842.1v-46.17z m0 186.39H678.79l69.61 69.61-134.83 145.89-142.32-142.3-259.4 259.4 28.87 28.87 230.53-230.53 143.47 143.49 162.58-175.9 64.79 64.79v-163.32z"  horiz-adv-x="1024" />

    
    <glyph glyph-name="xinzengpingzheng" unicode="&#58988;" d="M94.52 797.85v-833.07h833.07V797.85H94.52z m647.93-439.68H534.19V149.9h-46.28V358.17H279.64v46.28h208.27V612.72h46.28v-208.27h208.27v-46.28z"  horiz-adv-x="1024" />

    
    <glyph glyph-name="xinchouguanli" unicode="&#58989;" d="M757.4 676.46H60.47c0 54.99 44.57 99.56 99.56 99.56h497.81c54.98 0 99.56-44.57 99.56-99.56zM60.47 626.68v-647.15h896.05V626.68H60.47z m721.82-398.24c-41.24 0-74.67 33.43-74.67 74.67s33.43 74.67 74.67 74.67 74.67-33.43 74.67-74.67-33.44-74.67-74.67-74.67z"  horiz-adv-x="1024" />

    
    <glyph glyph-name="shujuzhongxin" unicode="&#58990;" d="M120.11 797.21v-824.57h781.17V797.21H120.11zM315.4 102.84H272V319.83h43.4v-216.99z m216.99 0h-43.4V580.22h43.4v-477.38z m216.99 0h-43.4V450.02h43.4v-347.18z"  horiz-adv-x="1024" />

    
    <glyph glyph-name="kucunhesuan" unicode="&#58991;" d="M870.6 648.2H175.7c-24.1 0-36.1 29.1-19.1 46.1l82 82c14.1 14.1 33.2 22 53.1 22h463.1c19.9 0 39-7.9 53.1-22l82-82c16.9-17 4.8-46.1-19.3-46.1zM859.1 610.6H187.3c-42.2 0-76.8-34.6-76.8-76.8v-146.5c0-42.2 34.6-76.8 76.8-76.8h671.8c42.2 0 76.8 34.6 76.8 76.8V533.9c0 42.2-34.6 76.7-76.8 76.7zM635.7 441.8c0-10.4-8.4-18.8-18.8-18.8H429.4c-10.4 0-18.8 8.4-18.8 18.8v37.5c0 10.4 8.4 18.8 18.8 18.8H617c10.4 0 18.8-8.4 18.8-18.8v-37.5zM859.1 273H187.3c-42.2 0-76.8-34.6-76.8-76.8v-146.5c0-42.2 34.6-76.8 76.8-76.8h671.8c42.2 0 76.8 34.6 76.8 76.8V196.2c0 42.2-34.6 76.8-76.8 76.8zM635.7 104.2c0-10.4-8.4-18.8-18.8-18.8H429.4c-10.4 0-18.8 8.4-18.8 18.8v37.5c0 10.4 8.4 18.8 18.8 18.8H617c10.4 0 18.8-8.4 18.8-18.8v-37.5z"  horiz-adv-x="1024" />

    
    <glyph glyph-name="xinchoujisuanqi" unicode="&#58992;" d="M165.85 827.29v-889.61h711.69V827.29H165.85z m133.44-800.65c-24.57 0-44.48 19.91-44.48 44.48 0 24.57 19.91 44.48 44.48 44.48 24.57 0 44.48-19.91 44.48-44.48 0-24.56-19.91-44.48-44.48-44.48z m0 177.92c-24.57 0-44.48 19.91-44.48 44.48s19.91 44.48 44.48 44.48c24.57 0 44.48-19.91 44.48-44.48s-19.91-44.48-44.48-44.48z m0 177.92c-24.57 0-44.48 19.91-44.48 44.48 0 24.57 19.91 44.48 44.48 44.48 24.57 0 44.48-19.91 44.48-44.48 0-24.56-19.91-44.48-44.48-44.48z m222.4-355.84c-24.57 0-44.48 19.91-44.48 44.48 0 24.57 19.91 44.48 44.48 44.48 24.57 0 44.48-19.91 44.48-44.48 0-24.56-19.91-44.48-44.48-44.48z m0 177.92c-24.57 0-44.48 19.91-44.48 44.48s19.91 44.48 44.48 44.48c24.57 0 44.48-19.91 44.48-44.48s-19.91-44.48-44.48-44.48z m0 177.92c-24.57 0-44.48 19.91-44.48 44.48 0 24.57 19.91 44.48 44.48 44.48 24.57 0 44.48-19.91 44.48-44.48 0-24.56-19.91-44.48-44.48-44.48zM744.1 26.64c-24.57 0-44.48 19.91-44.48 44.48 0 24.57 19.91 44.48 44.48 44.48 24.57 0 44.48-19.91 44.48-44.48 0-24.56-19.92-44.48-44.48-44.48z m0 177.92c-24.57 0-44.48 19.91-44.48 44.48s19.91 44.48 44.48 44.48c24.57 0 44.48-19.91 44.48-44.48s-19.92-44.48-44.48-44.48z m0 177.92c-24.57 0-44.48 19.91-44.48 44.48 0 24.57 19.91 44.48 44.48 44.48 24.57 0 44.48-19.91 44.48-44.48 0-24.56-19.92-44.48-44.48-44.48z m44.48 177.93H254.81V693.85h533.76v-133.44z"  horiz-adv-x="1024" />

    
    <glyph glyph-name="shebaojisuanqi" unicode="&#58993;" d="M98.71 797.86v-829.28H928V797.86H98.71zM248 550.46h66.41v66.41h46.07v-66.41h66.41v-46.07h-66.41v-66.41h-46.07v66.41H248v46.07z m179.79-364.75l-36.14-36.14-54.21 54.21-54.21-54.21-36.14 36.14 54.21 54.21-54.21 54.21 36.14 36.14 54.21-54.21 54.21 54.21 36.14-36.14-54.21-54.21 54.21-54.21z m351.83-19.93H575.18v46.07h204.44v-46.07z m0 102.22H575.18v46.07h204.44V268z m0 236.38H575.18v46.07h204.44v-46.07z"  horiz-adv-x="1024" />

    
    <glyph glyph-name="shengchanchengfenfenpeibiao" unicode="&#58994;" d="M684.7 433.5H339.5c-23 0-41.8 18.8-41.8 41.8V705.2c0 23 18.8 41.8 41.8 41.8h345.2c23 0 41.8-18.8 41.8-41.8v-229.9c0-23-18.8-41.8-41.8-41.8zM271.4 4.8H100.7c-20.4 0-36.9 16.5-36.9 36.9v82.1c0 20.4 16.5 36.9 36.9 36.9h170.7c20.4 0 36.9-16.5 36.9-36.9v-82.1c0-20.4-16.5-36.9-36.9-36.9zM597.4 4.8H426.7c-20.4 0-36.9 16.5-36.9 36.9v82.1c0 20.4 16.5 36.9 36.9 36.9h170.7c20.4 0 36.9-16.5 36.9-36.9v-82.1c0-20.4-16.5-36.9-36.9-36.9zM923.5 4.8H752.7c-20.4 0-36.9 16.5-36.9 36.9v82.1c0 20.4 16.5 36.9 36.9 36.9h170.7c20.4 0 36.9-16.5 36.9-36.9v-82.1c0.1-20.4-16.5-36.9-36.8-36.9zM492.6 589.5h39v-506.7h-39zM219.7 63.2h-39c0 118.7 33.7 230.5 95 314.7 30.2 41.6 65.6 74.3 105.1 97.2 41.5 24.1 85.6 36.3 131.2 36.3v-39c-161.1 0.1-292.3-183.5-292.3-409.2zM843.4 102.2h-39c0 225.7-131.1 409.3-292.3 409.3v39c45.6 0 89.8-12.2 131.2-36.3 39.5-23 74.9-55.7 105.1-97.2 61.3-84.3 95-196.1 95-314.8z"  horiz-adv-x="1024" />

    
    <glyph glyph-name="shulianghesuanyuebiao" unicode="&#58995;" d="M489 355.2H231.5l-128.7 223 128.7 223H489l128.7-223-128.7-223z m-214.5 74.5H446l85.8 148.6L446 726.8H274.5l-85.8-148.6 85.8-148.5zM797.4 519.7H670l-63.7-110.4L670 299h127.4l63.7 110.3zM609 296.6H416.3l-96.4-166.9 96.4-166.9H609l96.4 166.9z"  horiz-adv-x="1024" />

    
    <glyph glyph-name="pingzhenghuizongbiao" unicode="&#58996;" d="M164.1 832.4V110l172.6-172.6h559.7v895H164.1z m108.2-165.8c0 6.6 5.4 12 12 12h490.9c6.6 0 12-5.4 12-12v-34.5c0-6.6-5.4-12-12-12H284.3c-6.6 0-12 5.4-12 12v34.5z m0-259.8c0 6.6 5.4 12 12 12h490.9c6.6 0 12-5.4 12-12v-34.5c0-6.6-5.4-12-12-12H284.3c-6.6 0-12 5.4-12 12v34.5zM367.5-22L204.8 140.8h162.7V-22z m424.9 123c0-5.4-4.4-9.8-9.8-9.8h-326c-5.4 0-9.8 4.4-9.8 9.8v38.8c0 5.4 4.4 9.8 9.8 9.8h326c5.4 0 9.8-4.4 9.8-9.8V101z"  horiz-adv-x="1024" />

    
    <glyph glyph-name="zanguchongxiaotongjibiao" unicode="&#58997;" d="M443.2 258.8h205.6v-29.2H443.2zM443.2 315.2h205.6v-28.4H443.2zM845.1 831.4H249c-42.1 0-76.5-34.4-76.5-76.5v-97.7H84.3V618h88.1v-216.6H84.3v-39.1h88.1v-213.4H84.3v-39.1h88.1v-101c0-42.1 34.4-76.5 76.5-76.5h596.2c42.1 0 76.5 34.4 76.5 76.5v746c0 42.1-34.4 76.6-76.5 76.6zM355.4 411.5c26.7 2.2 61.1 4.7 98.9 8.2v29.7h-48.6c-17.6 0-31.8-2.6-35.3-6-2.2 7.7-8.2 25.4-12.5 35.3 6.9 1.7 14.2 8.6 21.9 18.1 3.4 4.3 10.3 13.3 17.6 24.9H355v30.5h60.6c5.2 9 9.9 18.1 13.8 27.5l40-10.3c-3.4-6-6.5-11.2-9.9-17.2h94.6v-30.5H438.9c-10.3-14.6-21.9-28.8-32.7-40.8h48.2V507h37v-26.2h64.1v-31.4h-64.1v-26.7l59.8 5.6 0.4-29.2-60.2-6.5v-38.3h-37v34.4l-95.9-10.3-3.1 33.1z m332.9-226.6h-39.5v13.4H443.2V184h-37.8V346.1h283v-161.2zM739 452.8h-46.9v-97.6h-36.6v97.6H607c-3.4-34.4-12-72.7-34.4-99.4-6.5 5.2-21.9 16.4-30.5 19.8 27.9 34 31 80 31 114.4v63.2c47.3 4.3 103.2 12.1 136.8 23.2l19.8-30.1c-32.7-9.9-79.1-16.3-121.3-20.2v-39.6H739v-31.3z"  horiz-adv-x="1024" />

    
    <glyph glyph-name="xushizhang" unicode="&#58998;" d="M515.8 871.6v-905.1M800.3 832.1h-569c-43.2 0-78.5-35.3-78.5-78.5v-730.4c0-43.2 35.3-78.5 78.5-78.5h569c43.2 0 78.5 35.3 78.5 78.5V753.6c0.1 43.2-35.3 78.5-78.5 78.5z m-284.5-80.7c111.4 0 201.7-90.3 201.7-201.7S627.2 348 515.8 348c-111.4 0-201.7 90.3-201.7 201.7s90.3 201.7 201.7 201.7zM304 257.3h423.5c16.7 0 30.3-13.5 30.3-30.3 0-16.7-13.5-30.3-30.3-30.3H304c-16.7 0-30.3 13.5-30.3 30.3 0.1 16.7 13.6 30.3 30.3 30.3z m423.6-221.9H304c-16.7 0-30.3 13.5-30.3 30.3 0 16.7 13.6 30.3 30.3 30.3h423.5c16.7 0 30.3-13.5 30.3-30.3 0-16.7-13.5-30.3-30.2-30.3zM513.2 509.4c-4.2 0-8.3 1.3-11.8 3.8-5.3 3.8-8.4 9.9-8.4 16.4V690.9c0 11.1 9 20.2 20.2 20.2 11.1 0 20.2-9 20.2-20.2v-133.4l94.5 31.5c10.6 3.5 22-2.2 25.5-12.8 3.5-10.6-2.2-22-12.8-25.5l-121-40.3c-2.1-0.7-4.2-1-6.4-1z"  horiz-adv-x="1024" />

    
    <glyph glyph-name="fanjiezhang" unicode="&#58999;" d="M468.8 369.5c17.7-47 42.9-86.6 76.9-119.7 33.5 32.1 60.5 71.7 77.8 119.7H468.8zM780.9 759.5h-56V798.3c0 21.4-17.5 38.8-38.8 38.8-21.4 0-38.8-17.5-38.8-38.8v-38.8H375.4V798.3c0 21.4-17.5 38.8-38.8 38.8-21.4 0-38.8-17.5-38.8-38.8v-38.8h-56c-44 0-79.9-36-79.9-79.9v-655.7c0-44 36-79.9 79.9-79.9H781c44 0 79.9 36 79.9 79.9V679.6c-0.1 43.9-36 79.9-80 79.9z m-481.5-38.9H377v-38.8c0-21.4-17.5-38.8-38.8-38.8-21.4 0-38.8 17.5-38.8 38.8v38.8z m388.8-594.7c-55.9 14.4-102.9 36.3-141.1 66.6-41.5-31.2-89-53.5-140.2-68.9-5.6 11.6-16.3 29.4-24.7 39.1 47.5 12.6 92.2 32.1 130.4 59.6-37.7 39.6-66.1 88.5-86.6 147.2h-27c-1.4-76.8-11.2-180.7-57.8-249.6-8.4 7.9-27.5 21-38.2 25.6 47.5 69.9 51.7 169.1 51.7 240.3V509.2c105.7 4.7 228.2 15.4 296.7 35.4l35.9-34.5c-76.9-22.4-187.7-33.5-288.3-38.2v-61h243.6l7.9 2.3 30.3-12.6c-19.6-76.4-54.5-134.6-100.6-179.3 37.3-26.6 82.4-45.7 136-57.8-9.4-8.7-22-26.4-28-37.6z m38.3 555.9c0-21.4-17.5-38.8-38.8-38.8-21.4 0-38.8 17.5-38.8 38.8v38.8h77.7v-38.8z"  horiz-adv-x="1024" />

    
    <glyph glyph-name="maolishuaitongji" unicode="&#59000;" d="M516.9 836.4c-244.3 0-442.4-198-442.4-442.4s198.1-442.4 442.4-442.4S959.3 149.7 959.3 394 761.3 836.4 516.9 836.4z m181-723.6H548.3c-82.7 0-105.9 20.7-105.9 98.3v65.8l-199.2-26.3-8.1 57 207.3 26.3v83.9l-179.1-24.4-8.1 55.7 187.3 25.1v83.3c-61.5-10.7-123.5-20.7-183-28.2-2.5 15.1-10.6 38.8-17.5 52 154.1 19.4 327.6 53.2 425.9 94l48.9-47C656 605.1 581.4 585 502.5 569.4V483l231.1 31.3 8.1-54.5-239.2-33.2v-85.2l271.8 34.4 8.1-54.5-280-36.9v-73.9c0-34.4 6.9-40.7 49.5-40.7h142.2c37 0 42.6 15.1 47.6 85.2 15-10.1 40.1-20.1 57-23.8-8.7-88.9-28.1-118.4-100.8-118.4z"  horiz-adv-x="1024" />

    
    <glyph glyph-name="xiazaizhongxin" unicode="&#59001;" d="M636.82 301.41H352.3l3.3 496.36h284.52zM837.77 393.46L494.56 50.25 151.35 393.46M153.97 21.71h686.22v-50.21H153.97z"  horiz-adv-x="1024" />

    
    <glyph glyph-name="lishidaoru2" unicode="&#58971;" d="M487.4 529.1h58.9v-336.5h-58.9zM516.9 151.8L325.6 343.1l41.6 41.6L516.9 235l149.6 149.7 41.7-41.6zM966.9-47.1H66.8v816h527.7l168.2-168.2h204.2v-647.8z m-841.2 58.9H908V541.7H738.4L570.1 709.9H125.7v-698.1z"  horiz-adv-x="1024" />

    
    <glyph glyph-name="lishidaoru" unicode="&#58969;" d="M755.7 611.4L593.1 774H65.9v-812.9H960.1V611.4H755.7zM513.1 148.2L319.6 341.7l57.5 57.5 93.6-93.6V530.1h84.9v-224.5l93.6 93.6 57.5-57.5-193.6-193.5z"  horiz-adv-x="1024" />

    
    <glyph glyph-name="yuancheng" unicode="&#58957;" d="M904 211H121.2c-11.5 0-20.8 9.3-20.8 20.8V771.7c0 11.5 9.3 20.8 20.8 20.8H904c11.5 0 20.8-9.3 20.8-20.8v-539.9c0.1-11.5-9.3-20.8-20.8-20.8zM791.3-32.2H233.9c-3.9 0-7.1 3.2-7.1 7.1v82.7c0 3.9 3.2 7.1 7.1 7.1h557.4c3.9 0 7.1-3.2 7.1-7.1v-82.7c0-4-3.2-7.1-7.1-7.1zM429.1 25.5V578.4c0 5.1 4.2 9.3 9.3 9.3h148.4c5.1 0 9.3-4.2 9.3-9.3v-552.9c0-5.1-4.2-9.3-9.3-9.3H438.4c-5.1 0-9.3 4.2-9.3 9.3zM884.7 248.9H140.5c-7.6 0-13.7 6.1-13.7 13.7V754.3c0 7.6 6.1 13.7 13.7 13.7h744.2c7.6 0 13.7-6.1 13.7-13.7v-491.7c0-7.6-6.1-13.7-13.7-13.7zM360.3 572.8l-122.2 62.5L280 492.5l25.1 46.1 32.9-49 27.5 21.8-44.4 37.9z"  horiz-adv-x="1024" />

    
    <glyph glyph-name="dayin" unicode="&#58956;" d="M907.7 19.5h-789c-11.2 0-20.3 9.1-20.3 20.3V362.3c0 11.2 9.1 20.3 20.3 20.3h789c11.2 0 20.3-9.1 20.3-20.3v-322.5c0-11.2-9.1-20.3-20.3-20.3zM193.2 19.5h125.6v-51.7H193.2zM705.3 19.5h125.6v-51.7H705.3zM713.6 128.2H873v-51.7H713.6zM437.5 482.5h461.6v-51.7H437.5zM98.717 380.805l727.18 419.85 25.85-44.772-727.18-419.85z"  horiz-adv-x="1024" />

    
    <glyph glyph-name="liulanqi" unicode="&#58955;" d="M507 577.8c3.8 0 7.6-0.2 11.4-0.4v0.2l394.9 0.2C840.7 728 686.9 831.6 508.9 831.6c-129.1 0-245.4-54.6-327.4-141.9l139.5-244c26.9 76.9 100 132.1 186 132.1z m-128.8-197c0-71.1 57.6-128.8 128.8-128.8 71.2 0 128.8 57.6 128.8 128.8S578.1 509.6 507 509.6c-71.1 0-128.8-57.7-128.8-128.8z m168.4-193c-12.7-2.6-26-4-39.5-4-69.8 0-131.1 36.3-166.1 91.2l-0.4-0.3-204.7 357.8C88 561.1 60 475.2 60 382.7c0-217 154-398 358.5-439.8l-10.1 6.1 138.2 238.8z m392.9 322l-283.5-0.2c29.8-34.5 48-79.6 48-128.8 0-38.1-10.8-73.7-29.6-103.8L476.8-64.9c10.6-0.8 21.3-1.3 32.1-1.3 247.9 0 448.9 201 448.9 448.9 0 44.2-6.5 86.8-18.3 127.1z m0 0M504.8 381.6m-133.7 0a133.7 133.7 0 1 1 267.4 0 133.7 133.7 0 1 1-267.4 0Z"  horiz-adv-x="1024" />

    
    <glyph glyph-name="kefu" unicode="&#58954;" d="M495.2 26.9H227.9c-45.6 0-82.8 39.2-82.8 87.5V401.6H184v-287.2c0-26.8 19.7-48.6 43.9-48.6h267.4v-38.9zM862.2 390h-38.9c0 210.9-143.4 382.4-319.7 382.4C327.4 772.4 184 600.9 184 390h-38.9c0 112 36.9 217.3 103.9 296.7 32.9 38.9 71.2 69.5 113.9 91 44.5 22.3 91.9 33.6 140.7 33.6 48.8 0 96.2-11.3 140.7-33.6 42.7-21.4 81.1-52 113.9-91 67.1-79.4 104-184.7 104-296.7zM572.3-32.2H449.4c-36.5 0-66.4 29.9-66.4 66.4V39c0 36.5 29.9 66.4 66.4 66.4h122.9c36.5 0 66.4-29.9 66.4-66.4v-4.8c0-36.6-29.9-66.4-66.4-66.4zM180.7 237.6c-51.3 0-93.2 42-93.2 93.2V449.2c0 51.3 42 93.2 93.2 93.2 51.3 0 93.2-42 93.2-93.2v-118.4c0-51.2-41.9-93.2-93.2-93.2zM817.7 237.6c-51.3 0-93.2 42-93.2 93.2V449.2c0 51.3 42 93.2 93.2 93.2 51.3 0 93.2-42 93.2-93.2v-118.4c0-51.2-41.9-93.2-93.2-93.2z"  horiz-adv-x="1024" />

    
    <glyph glyph-name="bianji" unicode="&#58951;" d="M784.6-59.4H223.9c-50.7 0-91.9 41.2-91.9 91.9V689.8c0 50.7 41.2 91.9 91.9 91.9h494.8c10.2 0 18.4-8.2 18.4-18.4s-8.2-18.4-18.4-18.4H223.9c-30.4 0-55.2-24.7-55.2-55.2v-657.2c0-30.4 24.7-55.2 55.2-55.2h560.7c30.4 0 55.2 24.7 55.2 55.2V639.2c0 10.2 8.2 18.4 18.4 18.4s18.4-8.2 18.4-18.4v-606.7c-0.1-50.6-41.3-91.9-92-91.9zM573.2 337H289.7c-10.2 0-18.4 8.2-18.4 18.4s8.2 18.4 18.4 18.4h283.4c10.2 0 18.4-8.2 18.4-18.4s-8.2-18.4-18.3-18.4zM573.2 542.7H289.7c-10.2 0-18.4 8.2-18.4 18.4s8.2 18.4 18.4 18.4h283.4c10.2 0 18.4-8.2 18.4-18.4s-8.2-18.4-18.3-18.4zM718.7 131.4h-429c-10.2 0-18.4 8.2-18.4 18.4s8.2 18.4 18.4 18.4h429c10.2 0 18.4-8.2 18.4-18.4s-8.2-18.4-18.4-18.4zM672.3 500.2c-3.3 0-6.6 0.9-9.5 2.7-8.7 5.3-11.4 16.6-6.1 25.3l170 279.1c5.3 8.7 16.6 11.4 25.3 6.1 8.7-5.3 11.4-16.6 6.1-25.3L688.1 509c-3.5-5.7-9.6-8.8-15.8-8.8z"  horiz-adv-x="1024" />

    
    <glyph glyph-name="baocun" unicode="&#58950;" d="M827.2-24.9H198.3c-53.4 0-96.8 43.4-96.8 96.8V700.8c0 53.4 43.4 96.8 96.8 96.8h628.9c53.4 0 96.8-43.4 96.8-96.8v-628.9c0-53.4-43.4-96.8-96.8-96.8zM198.3 758.8c-32 0-58.1-26-58.1-58.1v-628.9c0-32 26-58.1 58.1-58.1h628.9c32 0 58.1 26 58.1 58.1v629c0 32-26 58.1-58.1 58.1H198.3zM756.2 492.7H287c-10.7 0-19.4 8.7-19.4 19.4V778.2c0 10.7 8.7 19.4 19.4 19.4h469.3c10.7 0 19.4-8.7 19.4-19.4v-266.1c-0.1-10.7-8.8-19.4-19.5-19.4z m-449.9 38.7h430.6V758.8H306.3v-227.4zM904.6 393.2c-7.2 0-13.1 5.9-13.1 13.1v68.2c0 7.2 5.9 13.1 13.1 13.1s13.1-5.9 13.1-13.1v-68.2c0-7.2-5.9-13.1-13.1-13.1zM651.7 566.3c-10.7 0-19.4 8.7-19.4 19.4V707c0 10.7 8.7 19.4 19.4 19.4s19.4-8.7 19.4-19.4v-121.3c0-10.7-8.7-19.4-19.4-19.4z"  horiz-adv-x="1024" />

    
    <glyph glyph-name="gaikuang2" unicode="&#58923;" d="M938 737.5H672.2V797.8H612v-60.2H420.7V797.8h-60.2v-60.2H94.6v-617.5h349l-177-177 42.6-42.6 207.1 207.1 207.1-207.1 42.6 42.6-177 177h349V737.5z m-325.7-411c-5.6-5.3-13-8.2-20.6-8.2-0.8 0-1.5 0-2.3 0.1-8.4 0.6-16.2 4.8-21.4 11.5L459.8 468.3l-87.1-59.4-33.9 49.8L449.2 534c13.1 8.9 30.9 6.2 40.7-6.3L595 393l61.3 57.7 41.3-43.9-85.3-80.3z"  horiz-adv-x="1024" />

    
    <glyph glyph-name="pingzheng2" unicode="&#58922;" d="M67.6 704v-718h894.9V704H67.6zM189 521.3h285.7v-60H189v60z m284.3-380.8H187.6v60h285.7v-60z m3.3 162.3H190.9v60h285.7v-60z m360.9-162.1H563.8v384h273.6v-384z"  horiz-adv-x="1024" />

    
    <glyph glyph-name="zhangbu2" unicode="&#58919;" d="M100 648.9h172.3v-56.8H100zM94.3 429.4h172.3v-56.8H94.3zM100 210h172.3v-56.8H100zM166.8 817.9V-41h719.1V817.9H166.8z m514.9-389h-110v-84.7h110v-57h-110v-129.9h-60v130h-110v57h110V429h-110v57h107.5l-98.6 98.6 40.2 40.2 90.9-90.9 90.9 90.9 40.2-40.2-98.6-98.6h107.5v-57.1z"  horiz-adv-x="1024" />

    
    <glyph glyph-name="baobiao2" unicode="&#58918;" d="M318.9 834.5H707v-137.2H318.9zM768.9 767.9v-131.6H257.1V767.9H153v-831.4h720V767.9H768.9zM539.1 129.70000000000005h-234v59.1H539v-59.1z m177.2 181.7H309.7v59.1h406.7v-59.1z m0 182.7H309.7v59.1h406.7v-59.1z"  horiz-adv-x="1024" />

    
    <glyph glyph-name="baobiao1" unicode="&#58917;" d="M847.4-71.29999999999995h-720V772.4h190.9v-60H187.4v-723.7h600V712.4H660.8v60h186.6zM687.4 659.9h-400v180h400v-180z m-340 60h280v60h-280v-60zM278.9 554.6h406.7v-60H278.9zM278.9 369.20000000000005h406.7v-60H278.9zM277.4 184.79999999999995h233.9v-60H277.4z"  horiz-adv-x="1024" />

    
    <glyph glyph-name="fuzhu2" unicode="&#58916;" d="M898.1 662.6c-4.6 8.5-13 14.4-22.6 15.7-9.6 1.4-19.3-1.8-26.2-8.7L728.1 548.4l-42.4 6-6 42.4L801 718c6.9 6.9 10.1 16.6 8.7 26.2-1.4 9.6-7.2 18-15.7 22.6-48.4 26.4-105.4 36.8-160.3 29.3-56.8-7.8-108.3-33.3-148.9-74-49.3-49.3-76.4-114.8-76.4-184.4 0-24.4 3.4-48.4 9.8-71.3l-282.9-248-0.8-0.7-0.7-0.7c-25.2-25-36.8-63.3-31.9-105.1 4.4-37.6 21.2-73.3 45.9-98.1 24.8-24.8 60.3-41.6 97.5-46.3 6.9-0.9 13.6-1.3 20.1-1.3 33.9 0 63.6 11.3 85 32.7l0.4 0.4 264.5 283.2c17.5-3.6 35.5-5.5 53.7-5.5 69.7 0 135.2 27.1 184.4 76.4 40.6 40.6 66.2 92.1 74 148.9 7.6 54.9-2.8 111.9-29.3 160.3z"  horiz-adv-x="1024" />

    
    <glyph glyph-name="dayin2" unicode="&#58915;" d="M309 448.5v-512h412v512H309z m326.3-327.8H394.8v71.8h240.5v-71.8z m0 152.3H394.8v71.8h240.5V273zM126.3 727v-414.1h121.8V505.5H782v-192.6h121.8V727z"  horiz-adv-x="1024" />

    
    <glyph glyph-name="shezhi1" unicode="&#58914;" d="M702.8 708.5l187.8-325.2-187.8-325.2H327.3L139.5 383.29999999999995l187.8 325.2h375.5m34.6 60H292.6L70.2 383.29999999999995l222.4-385.2h444.8l222.4 385.2-222.4 385.2zM515 187.29999999999995c-108.1 0-196 87.9-196 196s87.9 196 196 196 196-87.9 196-196-87.9-196-196-196z m0 332c-75 0-136-61-136-136s61-136 136-136 136 61 136 136-61 136-136 136z"  horiz-adv-x="1024" />

    
    <glyph glyph-name="shezhi2" unicode="&#58913;" d="M510.1 385.3m-136 0a136 136 0 1 1 272 0 136 136 0 1 1-272 0ZM732.5 770.5H287.7L65.3 385.3l222.4-385.2h444.8l222.4 385.2-222.4 385.2zM510.1 189.3c-108.1 0-196 87.9-196 196s87.9 196 196 196 196-87.9 196-196-87.9-196-196-196z"  horiz-adv-x="1024" />

    
    <glyph glyph-name="dayin1" unicode="&#58911;" d="M899.4 379.2H759.1V451h68.5V721.5H193.7V451H288v-71.8H122V793.3h777.4zM390.5 411H631v-71.8H390.5zM390.5 258.7H631v-71.8H390.5zM777.6-32.9H243.7V620.4h533.9v-653.3z m-458.7 75.2h383.5V545.2H318.9v-502.9z"  horiz-adv-x="1024" />

    
    <glyph glyph-name="fuzhu1" unicode="&#58908;" d="M669.1 277c-69.7 0-135.2 27.1-184.4 76.4-49.3 49.3-76.4 114.8-76.4 184.4s27.1 135.2 76.4 184.4c40.6 40.6 92.1 66.2 148.9 74 54.9 7.5 111.9-2.9 160.3-29.3 8.5-4.6 14.4-13 15.7-22.6 1.4-9.6-1.8-19.3-8.7-26.2L679.7 596.8l6-42.4 42.4-6 121.2 121.2c6.9 6.9 16.6 10.1 26.2 8.7 9.6-1.4 18-7.2 22.6-15.7 26.4-48.4 36.8-105.4 29.3-160.3-7.8-56.8-33.3-108.3-74-148.9-49.1-49.3-114.6-76.4-184.3-76.4z m0.5 459.8c-51.8 0-103.2-20-141.4-58.2-37.6-37.6-58.3-87.6-58.3-140.9s20.7-103.2 58.3-140.9c37.6-37.6 87.6-58.3 140.9-58.3 53.2 0 103.2 20.7 140.9 58.3 51.8 51.8 70.2 128 50.4 196.6L760.8 494c-6.8-6.8-16.5-10.1-26.1-8.7l-80.6 11.3c-13.6 1.9-24.3 12.6-26.2 26.2l-11.3 80.6c-1.3 9.6 1.9 19.2 8.7 26.1l99.5 99.5c-18 5.2-36.6 7.8-55.2 7.8zM265.5-33.8c-6.6 0-13.3 0.4-20.1 1.3-37.2 4.6-72.8 21.5-97.5 46.3-24.8 24.8-41.5 60.5-45.9 98.1-4.9 41.8 6.7 80.2 31.8 105.3l0.7 0.7 0.8 0.7 301 263.8 40.6-46.3L176.7 173c-26.2-27.3-13.8-87.1 14.8-115.6 28.6-28.6 88.4-41.4 115.2-15.2l273 292.3 45-42-273.8-293.2-0.4-0.4c-21.4-21.4-51-32.7-85-32.7z"  horiz-adv-x="1024" />

    
    <glyph glyph-name="zhangbu1" unicode="&#58906;" d="M889-58.6H169.9V800.3H889v-858.9z m-664 55.2h608.8V745.1H225v-748.5zM103.1 631.2h172.3v-56.8H103.1zM97.3 411.8h172.3V355H97.3zM103.1 192.3h172.3v-56.8H103.1zM544.7 435.8L413.6 566.9l40.2 40.2 90.9-90.9 90.9 90.9 40.2-40.2zM404.7 468.2h280v-57h-280zM404.7 326.6h280v-57h-280zM516.3 453.3h57v-313.5h-57z"  horiz-adv-x="1024" />

    
    <glyph glyph-name="pingzheng1" unicode="&#58905;" d="M899.1 695v-598H124.2V695h774.9m60 60H64.2v-718h894.9V755zM774.1 515.8v-264H620.4v264h153.7m60 60H560.4v-384H834v384h0.1zM185.6 572.4h285.7v-60H185.6zM187.5 413.9h285.7v-60H187.5zM184.2 251.6h285.7v-60H184.2z"  horiz-adv-x="1024" />

    
    <glyph glyph-name="gaikuang1" unicode="&#58904;" d="M928.9 151.7H85.5V769.2h843.4v-617.5zM145.7 212h722.9V709H145.7v-497zM300-67.9l-42.6 42.6 228.4 228.4c5.6 5.6 13.3 8.8 21.3 8.8s15.6-3.2 21.3-8.8l228.4-228.4-42.6-42.6-207 207.1L300-67.9zM663 709H351.3V829.4h60.2v-60.2h191.3V829.4H663zM582.5 350c-0.8 0-1.5 0-2.3 0.1-8.4 0.6-16.2 4.8-21.4 11.5L450.6 500l-87.1-59.4-33.9 49.8L440 565.7c13.1 8.9 30.9 6.2 40.7-6.3l105.2-134.6 61.3 57.7 41.3-43.9-85.3-80.3c-5.7-5.4-13.1-8.3-20.7-8.3z"  horiz-adv-x="1024" />

    
    <glyph glyph-name="danju-" unicode="&#58894;" d="M1024 384c0-282.77-229.23-512-512-512S0 101.23 0 384 229.23 896 512 896s512-229.23 512-512zM762 104V664a40 40 0 0 1-40 40H302a40 40 0 0 1-40-40v-560a40 40 0 0 1 40-40h420a40 40 0 0 1 40 40zM488 544.83H356a30 30 0 0 0-30 30 30 30 0 0 0 30 30h132a30 30 0 0 0 30-30 30 30 0 0 0-30-30z m64-128.17H356a30 30 0 0 0-30 30 30 30 0 0 0 30 30h196a30 30 0 0 0 30-30 30 30 0 0 0-30-30z m128-128.18H356a30 30 0 0 0-30 30 30 30 0 0 0 30 30h324a30 30 0 0 0 30-30 30 30 0 0 0-30-30z m0-128.17H356a30 30 0 0 0-30 30 30 30 0 0 0 30 30h324a30 30 0 0 0 30-30 30 30 0 0 0-30-30z"  horiz-adv-x="1024" />

    
    <glyph glyph-name="fujian-" unicode="&#58891;" d="M1024 384c0-282.77-229.23-512-512-512S0 101.23 0 384 229.23 896 512 896s512-229.23 512-512zM693 657.21C644.67 706.73 580.38 734 512 734s-132.67-27.27-181-76.79-75-115.36-75-185.4h0.1v-250.64h-0.1C256 118 338 34 438.75 34S621.4 117.86 621.5 221V471.81C621.5 533.65 572.38 584 512 584s-109.5-50.35-109.5-112.19V221c0-18.06 14.3-32.71 31.94-32.71s31.93 14.65 31.93 32.71V471.81c0 25.77 20.47 46.73 45.63 46.73s45.62-21 45.62-46.73v-250.64c0-67.13-53.32-121.75-118.87-121.75S320 153.93 319.88 221h0.1V471.81h-0.1c0 108.5 86.18 196.77 192.12 196.77s192.12-88.27 192.12-196.77V221c0-18.06 14.3-32.71 31.94-32.71S768 202.91 768 221V471.81c0 70.04-26.63 135.88-75 185.4z"  horiz-adv-x="1024" />

    
    <glyph glyph-name="zichan-1" unicode="&#58890;" d="M1024 384c0-282.77-229.23-512-512-512S0 101.23 0 384 229.23 896 512 896s512-229.23 512-512zM512 574.41c124 0 224.58 28.62 224.58 63.92S636 702.25 512 702.25s-224.58-28.62-224.58-63.92S388 574.41 512 574.41z m0-53.15c-124 0-224.58 23.43-224.58 52.34v-104.82c0-35.3 100.55-63.92 224.58-63.92s224.58 28.62 224.58 63.92V573.6c0-28.91-100.58-52.34-224.58-52.34z m0-169.56c-124 0-224.58 23.44-224.58 52.35v-104.83c0-35.3 100.55-63.92 224.58-63.92s224.58 28.62 224.58 63.92V404c0-28.86-100.58-52.3-224.58-52.3z m0-169.55c-124 0-224.58 23.43-224.58 52.34v-104.82c0-35.3 100.55-63.92 224.58-63.92s224.58 28.62 224.58 63.92V234.49c0-28.91-100.58-52.34-224.58-52.34z"  horiz-adv-x="1024" />

    
    <glyph glyph-name="zidingyi-" unicode="&#58889;" d="M1024 384c0-282.77-229.23-512-512-512S0 101.23 0 384 229.23 896 512 896s512-229.23 512-512z m-222 96h-58.24l41.18 41.18a30 30 0 0 1 0 42.43l-93.33 93.33a30 30 0 0 1-42.43 0L608 615.76V674a30 30 0 0 1-30 30H446a30 30 0 0 1-30-30v-58.24l-41.18 41.18a30 30 0 0 1-42.43 0l-93.33-93.33a30 30 0 0 1 0-42.43L280.24 480H222a30 30 0 0 1-30-30v-132a30 30 0 0 1 30-30h58.24l-41.18-41.18a30 30 0 0 1 0-42.43l93.33-93.33a30 30 0 0 1 42.43 0L416 152.24V94a30 30 0 0 1 30-30h132a30 30 0 0 1 30 30v58.24l41.18-41.18a30 30 0 0 1 42.43 0l93.33 93.33a30 30 0 0 1 0 42.43L743.76 288H802a30 30 0 0 1 30 30V450a30 30 0 0 1-30 30z m-290 32a128 128 0 1 1 128-128 128 128 0 0 1-128 128z"  horiz-adv-x="1024" />

    
    <glyph glyph-name="kucun-" unicode="&#58887;" d="M378.31 357.49l3.06 4c20.11 26.38 37.32 49.93 51.42 70.33h-77.72v69.64h122.34c12.1 20.44 21.24 36.65 27.27 48.34H352v-146.74c0-57.46-2.5-105.82-7.45-144.35h204.13V293H378.31zM473 362.36h75.68v69.49h-28.95A2278.702 2278.702 0 0 0 473 362.36zM512 896C229.23 896 0 666.77 0 384s229.23-512 512-512 512 229.23 512 512S794.77 896 512 896z m288.28-708.09H623.06v-102.17h-74.38V187.91H334.52v17.2c-9.4-36.33-24.75-73.81-45.75-111.65l-9.09-16.39-14 12.47-7.92 7c-11.94 10.21-21.36 17.88-28 22.8l-10.59 7.86 6.44 11.5c15.36 27.47 26.61 51.67 33.42 71.93 7.55 22.45 12.82 48.78 15.67 78.27 2.72 27.81 4.1 67.7 4.1 118.59V619.71h228.45q-1.23 4.71-2.63 10.14c-3.22 12.51-5.75 22-7.51 28.29l-4.83 17.18 80.8 8.18 15.5-63.79h210.8v-69.91H592.79l-11.3-18.23c-3.58-5.77-9-14.62-16-26.32l-2.28-3.79h213.24v-69.61H623.06v-69.49h150.11V293H623.06v-34.34h177.22z"  horiz-adv-x="1024" />

    
    <glyph glyph-name="yinhang-" unicode="&#58886;" d="M1024 384c0-282.77-229.23-512-512-512S0 101.23 0 384 229.23 896 512 896s512-229.23 512-512zM803.24 553.23L532.12 672c-0.3 0.15-0.67 0.29-1 0.44-1.86 1.12-9.85 5.53-18.51 5.9h-1c-8.73-0.45-16.65-4.78-18.59-5.9a3.73 3.73 0 0 0-1-0.44L221.59 553.23a12.25 12.25 0 0 1-7.59-11.34v-14.33a8.86 8.86 0 0 1 8.88-8.89h29.26a8.81 8.81 0 0 0 8.59-6.49c3.66-14 19.18-13.14 21.65-13h459.05c2.46-0.22 18-1.05 21.65 13a8.79 8.79 0 0 0 8.58 6.49h29.26a8.86 8.86 0 0 1 8.89 8.89v13.58a8.56 8.56 0 0 0 0.15 1.42c0.52 4.44-2.24 8.36-6.72 10.67z m-19.48-373.08H241c-20.83 0-20.38-20.38-20.38-20.38v-25.23a8.86 8.86 0 0 1 8.89-8.88h565.67a8.85 8.85 0 0 1 8.88 8.88v25.23c0.08 0 0.6 20.38-20.3 20.38zM365.51 478.29h-56.58a8.91 8.91 0 0 1-9.11-8.89v-229.53h-23.21c-17.17 0-19.56-16.28-19.86-19.41 0-0.3-0.07-0.6-0.07-0.82v-10.15a8.86 8.86 0 0 1 8.88-8.89h494.61a8.86 8.86 0 0 1 8.88 8.89v10.15a3 3 0 0 1-0.07 0.82c-0.3 3.13-2.69 19.41-19.86 19.41H725.9V469.4a8.86 8.86 0 0 1-8.88 8.89H660a8.86 8.86 0 0 1-8.88-8.89v-229.53h-45.55V469.4a8.86 8.86 0 0 1-8.88 8.89h-56.58a8.86 8.86 0 0 1-8.88-8.89v-230h-37v230a8.86 8.86 0 0 1-8.89 8.89h-56.53a8.86 8.86 0 0 1-8.88-8.89v-229.53h-45.54V469.4a8.86 8.86 0 0 1-8.88 8.89z"  horiz-adv-x="1024" />

    
    <glyph glyph-name="feiyong-" unicode="&#58884;" d="M1024 384c0-282.77-229.23-512-512-512S0 101.23 0 384 229.23 896 512 896s512-229.23 512-512zM730.93 674.58h-97.72L525.87 458.19l-0.06-0.12c-4.87-10.15-9-19.15-12.33-27.11q-5.08 12.04-11.16 24.67l-106.5 218.95H293.16l146.1-272.26H325.19v-77.69H468v-65.92H325.19V181H468v-121.6h88V181h138.66v77.71H556v65.92h138.66v77.69H583.17z"  horiz-adv-x="1024" />

    
    <glyph glyph-name="shouru-" unicode="&#58883;" d="M492.4 416.26q-12-18.54-27-39.55l-10.08-14-9.68 14.29q-6.43 9.57-12.9 18.11v-235.55c51.61 31.12 92.84 62.81 122.75 94.35-15.57 23.83-29 50.87-40 80.52-8.56 23.72-16.31 51.15-23.09 81.83zM512 896C229.23 896 0 666.77 0 384s229.23-512 512-512 512 229.23 512 512S794.77 896 512 896z m275.33-748.38a414.94 414.94 0 0 1-27.33-43l-5.68-10.46-10.51 5.6c-61 32.48-109.09 66-143.28 99.82-31.39-32.68-75.09-67.5-130.14-103.66l-9.84-6.46-6.65 9.72c-7.08 10.34-14.17 20-21.16 28.94v-32.7h-67.95v165c-25.93-14.67-44.92-26.31-56.57-34.7l-0.87-0.58c-7.32-4.35-15.69-11.23-24.9-20.44L272 194.23l-40.52 62.5 5.92 6.82c5.46 6.28 9.35 12.52 11.57 18.55s3.36 13.92 3.36 23.38V597h66.49v-287.94l46 26.76v335h67.95v-220.93a753.15 753.15 0 0 1 103.61 215.55l3 10.21 71.07-12.14-5.06-13.58c-12.14-32.63-22.88-59.8-32-81.08H784.6v-69.12H727c-8-54.56-18.43-101.33-30.9-139.12-13-39.41-30.24-75-51.26-106 32.54-32.34 78.81-62.27 137.7-89.05l13.29-6zM542.4 499.73c7.09-44.54 15.73-82.8 25.7-113.81 8.89-27.57 19.74-52.35 32.35-73.91a370.76 370.76 0 0 1 35 78.57c9.48 29.83 17.44 66.51 23.7 109.15z"  horiz-adv-x="1024" />

    


  </font>
</defs>
</svg>
